<svg width="1156" height="316" viewBox="0 0 1156 316" fill="none" xmlns="http://www.w3.org/2000/svg">
<path d="M433.894 152.714C442.709 157.354 447.732 166.067 447.732 176.578C447.732 192.583 433.61 205.462 416.17 205.462H373.613V105.459H415.033C432.283 105.459 445.173 116.444 445.173 131.217C445.173 139.835 440.908 147.79 433.894 152.714ZM414.18 185.67C421.288 185.67 426.027 180.935 426.027 174.4C426.027 167.961 421.288 163.226 414.18 163.226H394.939V185.67H414.18ZM424.132 134.532C424.132 128.282 419.772 123.831 412.948 123.831H394.939V145.138H412.948C419.772 145.233 424.132 140.782 424.132 134.532Z" fill="white"/>
<path d="M506.679 127.903V147.6H497.58C485.827 147.6 481.183 152.809 481.183 165.404V205.557H460.331V128.376H473.695L477.392 137.846C482.889 131.028 489.903 127.998 499.76 127.998H506.679V127.903Z" fill="white"/>
<path d="M591.887 128.187V205.367H575.49L573.689 198.454C567.055 204.231 558.429 207.64 548.667 207.64C525.446 207.64 508.101 190.12 508.101 166.73C508.101 143.434 525.351 126.104 548.667 126.104C558.619 126.104 567.339 129.607 574.068 135.573L576.343 128.187H591.887ZM571.415 166.824C571.415 154.703 562.505 145.706 550.373 145.706C538.241 145.706 529.332 154.798 529.332 166.824C529.332 178.946 538.241 187.942 550.373 187.942C562.505 187.942 571.415 178.946 571.415 166.824Z" fill="white"/>
<path d="M608.387 128.376H629.239V205.557H608.387V128.376ZM608.387 98.6406H629.239V118.054H608.387V98.6406Z" fill="white"/>
<path d="M718.332 158.775V205.557H697.48V162.184C697.48 150.536 693.025 144.854 684.021 144.854C673.216 144.854 666.676 152.525 666.676 165.025V205.557H645.824V128.376H660.136L664.212 137.941C670.088 131.028 679.282 126.577 689.803 126.577C707.337 126.482 718.332 139.172 718.332 158.775Z" fill="white"/>
<path d="M761.269 207.734C741.839 207.734 728.948 196.654 728.854 180.177H749.231C749.326 187.09 754.634 190.499 762.122 190.499C767.903 190.499 773.116 187.847 773.116 182.733C773.116 177.43 766.387 175.82 758.236 174.495C745.914 172.411 730.18 169.097 730.18 150.914C730.18 136.331 742.597 126.198 761.269 126.198C779.941 126.198 792.167 136.52 792.262 151.956H772.453C772.358 145.801 768.093 142.77 760.795 142.77C754.255 142.77 750.464 145.706 750.464 150.157C750.464 155.271 757.098 156.502 765.06 157.922C777.666 160.195 793.779 162.847 793.779 181.692C793.684 197.412 780.794 207.734 761.269 207.734Z" fill="white"/>
<path d="M841.252 207.734C818.031 207.734 800.212 189.836 800.212 166.729C800.212 143.623 817.841 126.198 841.347 126.198C861.346 126.198 876.89 138.888 880.586 157.827H859.829C856.417 150.251 849.498 145.801 841.157 145.801C829.784 145.801 821.348 154.892 821.348 166.824C821.348 178.756 829.973 188.131 841.157 188.131C849.593 188.131 856.228 183.396 859.829 175.157H880.871C877.269 194.571 861.535 207.734 841.252 207.734Z" fill="white"/>
<path d="M969.794 128.187V205.367H953.492L951.691 198.454C945.056 204.231 936.431 207.64 926.669 207.64C903.447 207.64 886.103 190.12 886.103 166.73C886.103 143.434 903.353 126.104 926.669 126.104C936.621 126.104 945.341 129.607 952.07 135.573L954.345 128.187H969.794ZM949.416 166.824C949.416 154.703 940.507 145.706 928.375 145.706C916.243 145.706 907.334 154.798 907.334 166.824C907.334 178.946 916.243 187.942 928.375 187.942C940.507 187.942 949.416 178.946 949.416 166.824Z" fill="white"/>
<path d="M1028.45 126.198C1051.68 126.198 1068.93 143.623 1068.93 167.013C1068.93 190.404 1051.68 207.924 1028.45 207.924C1020.49 207.924 1013.19 205.556 1007.22 201.389V233.398H986.371V128.376H1000.21L1003.81 135.384C1010.26 129.512 1018.79 126.198 1028.45 126.198ZM1047.79 166.919C1047.79 154.797 1038.88 145.801 1026.75 145.801C1014.62 145.801 1005.71 154.892 1005.71 166.919C1005.71 179.04 1014.62 188.037 1026.75 188.037C1038.88 188.037 1047.79 179.04 1047.79 166.919Z" fill="white"/>
<path d="M1155.28 166.635C1155.28 168.719 1155.09 170.708 1154.9 172.791H1096.42C1098.22 183.303 1105.14 189.079 1115.28 189.079C1122.58 189.079 1128.46 185.67 1131.68 180.083H1153.67C1148.08 196.939 1133.29 207.64 1115.38 207.64C1092.53 207.64 1075.28 190.026 1075.28 166.825C1075.28 143.623 1092.44 126.009 1115.38 126.009C1138.98 126.199 1155.28 144.381 1155.28 166.635ZM1096.99 158.491H1134.43C1131.49 149.021 1124.66 143.908 1115.28 143.908C1105.99 144.002 1099.36 149.4 1096.99 158.491Z" fill="white"/>
<path d="M227.569 65.4456H179.23C174.965 65.5403 171.079 68.0025 169.184 71.8852C169.184 71.8852 164.634 82.1128 160.369 91.8669C152.313 59.0061 139.707 8.34173 139.707 8.34173C138.569 3.60675 134.399 0.197559 129.47 0.00815958C124.542 -0.18124 120.182 2.94385 118.76 7.58413C118.76 7.58413 103.974 53.7029 100.183 65.635H64.2607C71.085 71.0329 75.5397 78.7036 76.8667 87.3213H108.05C112.789 87.3213 116.864 84.1962 118.286 79.7453C118.286 79.7453 123.025 64.9721 127.575 50.4831C135.915 84.2909 146.815 127.758 146.815 127.758C147.858 132.209 151.744 135.523 156.388 135.808C161.032 136.186 165.392 133.629 167.288 129.368C167.288 129.368 181.79 96.7912 186.055 87.0372H215.058C216.48 78.6089 220.934 70.9382 227.569 65.4456Z" fill="#2BA5DC"/>
<path d="M277.33 99.4428C277.33 99.1587 277.615 98.9693 277.615 98.7799V98.4958C277.615 98.2117 277.709 98.0223 277.899 97.8329V97.5488C277.899 97.2647 277.994 97.0753 278.183 96.8859V95.9389V92.8138C278.183 77.4725 265.672 64.9721 250.317 64.9721C234.963 64.9721 222.452 77.4725 222.452 92.8138C222.452 108.155 234.963 120.656 250.317 120.656H255.53C255.815 120.656 256.004 120.561 256.194 120.371C263.113 135.713 266.62 152.285 266.715 169.142C266.809 184.767 263.682 200.203 257.71 214.598C228.992 184.578 188.899 168.005 147.29 168.858C105.586 168.195 65.5887 184.483 36.396 214.124C30.4248 199.73 27.3918 184.294 27.3918 168.668C27.297 151.906 30.8039 135.429 37.6282 120.182C38.1021 120.182 38.8603 120.466 39.3343 120.466H42.462C57.8166 120.466 70.3277 107.966 70.3277 92.6244C70.3277 77.2831 57.8166 64.7827 42.462 64.7827C27.1075 64.7827 14.5015 77.1884 14.5015 92.5297V100.39C14.5015 100.674 14.7859 101.053 14.7859 101.337C5.30776 122.455 0.284344 145.277 0 168.384C0 249.731 65.9678 315.642 147.29 315.642C228.707 315.642 294.675 249.731 294.675 168.479C294.486 144.33 288.609 120.656 277.33 99.4428ZM87.8623 247.648C76.9624 247.648 68.1478 238.841 68.1478 227.95C68.1478 217.06 76.9624 208.253 87.8623 208.253C98.7621 208.253 107.577 217.06 107.577 227.95C107.577 238.841 98.7621 247.648 87.9571 247.648C87.8623 247.648 87.8623 247.648 87.8623 247.648ZM206.623 247.648C195.723 247.648 186.909 238.841 186.909 227.95C186.909 217.06 195.723 208.253 206.623 208.253C217.523 208.253 226.338 217.06 226.338 227.95C226.338 238.841 217.523 247.648 206.718 247.648C206.623 247.648 206.623 247.648 206.623 247.648Z" fill="white"/>
</svg>
