<svg width="2297" height="451" viewBox="0 0 2297 451" fill="none" xmlns="http://www.w3.org/2000/svg">
<g clip-path="url(#clip0_4358_342)">
<g clip-path="url(#clip1_4358_342)">
<path d="M619.744 218.032C632.334 224.66 639.509 237.103 639.509 252.117C639.509 274.975 619.338 293.37 594.43 293.37H533.647V150.54H592.805C617.443 150.54 635.854 166.229 635.854 187.329C635.854 199.637 629.762 210.999 619.744 218.032ZM591.587 265.101C601.74 265.101 608.508 258.338 608.508 249.006C608.508 239.808 601.74 233.046 591.587 233.046H564.106V265.101H591.587ZM605.801 192.063C605.801 183.136 599.574 176.779 589.827 176.779H564.106V207.212H589.827C599.574 207.347 605.801 200.99 605.801 192.063Z" fill="white"/>
<path d="M723.7 182.595V210.728H710.704C693.918 210.728 687.285 218.167 687.285 236.156V293.505H657.503V183.271H676.59L681.87 196.797C689.722 187.058 699.739 182.73 713.818 182.73H723.7V182.595Z" fill="white"/>
<path d="M845.4 183.001V293.235H821.98L819.408 283.361C809.932 291.611 797.613 296.481 783.67 296.481C750.504 296.481 725.73 271.458 725.73 238.05C725.73 204.777 750.368 180.025 783.67 180.025C797.884 180.025 810.338 185.03 819.95 193.551L823.199 183.001H845.4ZM816.159 238.185C816.159 220.873 803.434 208.023 786.107 208.023C768.779 208.023 756.054 221.008 756.054 238.185C756.054 255.498 768.779 268.347 786.107 268.347C803.434 268.347 816.159 255.498 816.159 238.185Z" fill="white"/>
<path d="M868.968 183.272H898.75V293.505H868.968V183.272ZM868.968 140.801H898.75V168.529H868.968V140.801Z" fill="white"/>
<path d="M1026 226.689V293.505H996.216V231.558C996.216 214.922 989.853 206.806 976.993 206.806C961.56 206.806 952.22 217.762 952.22 235.616V293.505H922.438V183.272H942.879L948.7 196.933C957.093 187.059 970.224 180.702 985.25 180.702C1010.29 180.567 1026 198.691 1026 226.689Z" fill="white"/>
<path d="M1087.32 296.616C1059.57 296.616 1041.16 280.791 1041.02 257.256H1070.13C1070.26 267.13 1077.84 271.999 1088.54 271.999C1096.8 271.999 1104.24 268.212 1104.24 260.908C1104.24 253.334 1094.63 251.034 1082.99 249.141C1065.39 246.165 1042.92 241.431 1042.92 215.462C1042.92 194.633 1060.65 180.16 1087.32 180.16C1113.99 180.16 1131.45 194.903 1131.59 216.95H1103.29C1103.16 208.158 1097.07 203.83 1086.64 203.83C1077.3 203.83 1071.89 208.023 1071.89 214.38C1071.89 221.684 1081.36 223.442 1092.73 225.471C1110.74 228.717 1133.75 232.504 1133.75 259.42C1133.62 281.873 1115.21 296.616 1087.32 296.616Z" fill="white"/>
<path d="M1201.56 296.616C1168.39 296.616 1142.94 271.052 1142.94 238.05C1142.94 205.047 1168.12 180.16 1201.69 180.16C1230.25 180.16 1252.46 198.285 1257.74 225.336H1228.09C1223.22 214.515 1213.33 208.158 1201.42 208.158C1185.18 208.158 1173.13 221.143 1173.13 238.185C1173.13 255.227 1185.45 268.618 1201.42 268.618C1213.47 268.618 1222.94 261.855 1228.09 250.088H1258.14C1253 277.815 1230.53 296.616 1201.56 296.616Z" fill="white"/>
<path d="M1385.15 183.001V293.235H1361.86L1359.29 283.361C1349.81 291.611 1337.5 296.481 1323.55 296.481C1290.39 296.481 1265.61 271.458 1265.61 238.05C1265.61 204.777 1290.25 180.025 1323.55 180.025C1337.77 180.025 1350.22 185.03 1359.83 193.551L1363.08 183.001H1385.15ZM1356.04 238.185C1356.04 220.873 1343.32 208.023 1325.99 208.023C1308.66 208.023 1295.94 221.008 1295.94 238.185C1295.94 255.498 1308.66 268.347 1325.99 268.347C1343.32 268.347 1356.04 255.498 1356.04 238.185Z" fill="white"/>
<path d="M1468.93 180.16C1502.1 180.16 1526.74 205.047 1526.74 238.456C1526.74 271.864 1502.1 296.886 1468.93 296.886C1457.56 296.886 1447.14 293.505 1438.61 287.554V333.27H1408.83V183.271H1428.59L1433.74 193.28C1442.94 184.894 1455.13 180.16 1468.93 180.16ZM1496.55 238.32C1496.55 221.008 1483.82 208.158 1466.5 208.158C1449.17 208.158 1436.44 221.143 1436.44 238.32C1436.44 255.633 1449.17 268.482 1466.5 268.482C1483.82 268.482 1496.55 255.633 1496.55 238.32Z" fill="white"/>
<path d="M1650.07 237.915C1650.07 240.891 1649.8 243.731 1649.53 246.707H1566.01C1568.58 261.72 1578.46 269.971 1592.94 269.971C1603.37 269.971 1611.76 265.102 1616.36 257.122H1647.77C1639.78 281.197 1618.67 296.481 1593.08 296.481C1560.46 296.481 1535.82 271.324 1535.82 238.186C1535.82 205.048 1560.32 179.891 1593.08 179.891C1626.79 180.161 1650.07 206.13 1650.07 237.915ZM1566.82 226.283H1620.29C1616.09 212.758 1606.35 205.454 1592.94 205.454C1579.68 205.589 1570.2 213.299 1566.82 226.283Z" fill="white"/>
<path d="M325.065 93.3904H256.026C249.934 93.5257 244.384 97.0423 241.676 102.588C241.676 102.588 235.178 117.195 229.086 131.127C217.58 84.193 199.575 11.8312 199.575 11.8312C197.951 5.06837 191.994 0.199158 184.955 -0.0713538C177.916 -0.341865 171.689 4.12158 169.658 10.7491C169.658 10.7491 148.54 76.6187 143.125 93.6609H91.8188C101.566 101.371 107.928 112.326 109.823 124.635H154.361C161.13 124.635 166.951 120.171 168.981 113.814C168.981 113.814 175.75 92.7141 182.248 72.02C194.16 120.306 209.728 182.389 209.728 182.389C211.217 188.746 216.768 193.48 223.401 193.885C230.034 194.426 236.261 190.775 238.969 184.688C238.969 184.688 259.681 138.16 265.772 124.229H307.196C309.227 112.191 315.589 101.235 325.065 93.3904Z" fill="#2BA5DC"/>
<path d="M396.138 141.947C396.138 141.542 396.544 141.271 396.544 141.001V140.595C396.544 140.189 396.679 139.919 396.95 139.648V139.242C396.95 138.837 397.085 138.566 397.356 138.296V136.943V132.48C397.356 110.568 379.487 92.7144 357.557 92.7144C335.626 92.7144 317.757 110.568 317.757 132.48C317.757 154.391 335.626 172.245 357.557 172.245H365.002C365.408 172.245 365.679 172.11 365.95 171.839C375.832 193.75 380.841 217.42 380.976 241.496C381.111 263.813 376.644 285.86 368.116 306.419C327.098 263.542 269.835 239.873 210.407 241.09C150.843 240.143 93.7158 263.407 52.0211 305.742C43.4926 285.183 39.1607 263.137 39.1607 240.819C39.0253 216.879 44.0341 193.345 53.7809 171.569C54.4578 171.569 55.5408 171.974 56.2176 171.974H60.6849C82.6153 171.974 100.484 154.12 100.484 132.209C100.484 110.298 82.6153 92.4438 60.6849 92.4438C38.7546 92.4438 20.7501 110.162 20.7501 132.074V143.3C20.7501 143.706 21.1562 144.247 21.1562 144.653C7.61894 174.815 0.444203 207.411 0.0380859 240.414C0.0380859 356.598 94.2573 450.737 210.407 450.737C326.692 450.737 420.911 356.598 420.911 240.549C420.64 206.059 412.247 172.245 396.138 141.947ZM125.528 353.623C109.96 353.623 97.3708 341.044 97.3708 325.49C97.3708 309.935 109.96 297.356 125.528 297.356C141.096 297.356 153.686 309.935 153.686 325.49C153.686 341.044 141.096 353.623 125.664 353.623C125.528 353.623 125.528 353.623 125.528 353.623ZM295.15 353.623C279.582 353.623 266.992 341.044 266.992 325.49C266.992 309.935 279.582 297.356 295.15 297.356C310.718 297.356 323.307 309.935 323.307 325.49C323.307 341.044 310.718 353.623 295.285 353.623C295.15 353.623 295.15 353.623 295.15 353.623Z" fill="white"/>
</g>
<path d="M1778.88 146.906V175.729H1739.02V290H1708.15V175.729H1668.29V146.906H1778.88ZM1796.09 164.895V137.299H1825.73V164.895H1796.09ZM1796.09 290V179.613H1825.94V290H1796.09ZM1980.1 177.16C2002.99 177.16 2018.93 194.945 2018.93 220.906V290H1989.09V225.812C1989.09 211.094 1983.37 203.326 1972.53 203.326C1959.24 203.326 1951.27 213.138 1951.27 230.309V290H1922.24V225.812C1922.24 211.094 1916.52 203.326 1905.89 203.326C1892.4 203.326 1884.43 213.138 1884.43 230.309V290H1854.58V179.613H1875.43L1880.95 193.31C1888.72 183.497 1900.78 177.16 1913.86 177.16C1927.97 177.16 1939.42 183.702 1945.96 194.74C1953.52 184.111 1965.99 177.16 1980.1 177.16ZM2153.54 234.602C2153.54 237.464 2153.34 240.326 2152.93 243.188H2069.32C2071.98 258.315 2081.79 266.696 2096.3 266.696C2106.73 266.696 2115.31 261.79 2119.81 253.818H2151.09C2143.11 277.939 2122.06 293.271 2096.3 293.271C2063.8 293.271 2039.07 267.923 2039.07 234.807C2039.07 201.691 2063.6 176.547 2096.3 176.547C2130.24 176.547 2153.54 202.713 2153.54 234.602ZM2096.3 202.1C2083.02 202.1 2073.61 209.868 2070.14 222.95H2123.7C2119.4 209.459 2109.79 202.1 2096.3 202.1ZM2231.21 179H2241.02V207.21H2227.93C2211.17 207.21 2204.63 214.774 2204.63 232.763V290H2174.79V179.613H2193.8L2199.11 193.31C2207.08 183.497 2216.9 179 2231.21 179Z" fill="#2BA5DC"/>
</g>
<defs>
<clipPath id="clip0_4358_342">
<rect width="2297" height="451" fill="white"/>
</clipPath>
<clipPath id="clip1_4358_342">
<rect width="1651.81" height="450.808" fill="white"/>
</clipPath>
</defs>
</svg>
