<svg width="1788" height="374" viewBox="0 0 1788 374" fill="none" xmlns="http://www.w3.org/2000/svg">
<path d="M1161.4 301.937C1165.27 303.974 1167.47 307.797 1167.47 312.411C1167.47 319.435 1161.28 325.087 1153.62 325.087H1134.94V281.198H1153.12C1160.69 281.198 1166.35 286.019 1166.35 292.503C1166.35 296.285 1164.48 299.776 1161.4 301.937ZM1152.75 316.401C1155.87 316.401 1157.95 314.322 1157.95 311.455C1157.95 308.629 1155.87 306.55 1152.75 306.55H1144.3V316.401H1152.75ZM1157.12 293.957C1157.12 291.214 1155.2 289.261 1152.21 289.261H1144.3V298.612H1152.21C1155.2 298.654 1157.12 296.7 1157.12 293.957Z" fill="white"/>
<path d="M1193.34 291.048V299.693H1189.35C1184.19 299.693 1182.15 301.979 1182.15 307.506V325.128H1173V291.256H1178.87L1180.49 295.412C1182.9 292.42 1185.98 291.09 1190.31 291.09H1193.34V291.048Z" fill="white"/>
<path d="M1230.74 291.173V325.045H1223.54L1222.75 322.012C1219.84 324.547 1216.06 326.043 1211.77 326.043C1201.58 326.043 1193.97 318.354 1193.97 308.088C1193.97 297.864 1201.54 290.259 1211.77 290.259C1216.14 290.259 1219.97 291.796 1222.92 294.415L1223.92 291.173H1230.74ZM1221.75 308.13C1221.75 302.81 1217.84 298.862 1212.52 298.862C1207.2 298.862 1203.29 302.852 1203.29 308.13C1203.29 313.45 1207.2 317.398 1212.52 317.398C1217.84 317.398 1221.75 313.45 1221.75 308.13Z" fill="white"/>
<path d="M1237.98 291.256H1247.13V325.129H1237.98V291.256ZM1237.98 278.206H1247.13V286.726H1237.98V278.206Z" fill="white"/>
<path d="M1286.23 304.597V325.129H1277.08V306.093C1277.08 300.981 1275.13 298.488 1271.18 298.488C1266.43 298.488 1263.56 301.854 1263.56 307.34V325.129H1254.41V291.256H1260.69L1262.48 295.454C1265.06 292.42 1269.1 290.466 1273.71 290.466C1281.41 290.425 1286.23 295.994 1286.23 304.597Z" fill="white"/>
<path d="M1305.08 326.084C1296.55 326.084 1290.89 321.222 1290.85 313.99H1299.79C1299.84 317.024 1302.17 318.52 1305.45 318.52C1307.99 318.52 1310.28 317.356 1310.28 315.112C1310.28 312.785 1307.32 312.078 1303.75 311.496C1298.34 310.582 1291.43 309.127 1291.43 301.147C1291.43 294.747 1296.88 290.3 1305.08 290.3C1313.27 290.3 1318.64 294.83 1318.68 301.605H1309.99C1309.94 298.903 1308.07 297.573 1304.87 297.573C1302 297.573 1300.33 298.862 1300.33 300.815C1300.33 303.059 1303.25 303.6 1306.74 304.223C1312.27 305.22 1319.34 306.384 1319.34 314.655C1319.3 321.554 1313.65 326.084 1305.08 326.084Z" fill="white"/>
<path d="M1340.18 326.084C1329.99 326.084 1322.17 318.229 1322.17 308.088C1322.17 297.947 1329.91 290.3 1340.22 290.3C1349 290.3 1355.82 295.869 1357.44 304.181H1348.33C1346.84 300.857 1343.8 298.903 1340.14 298.903C1335.15 298.903 1331.44 302.893 1331.44 308.13C1331.44 313.367 1335.23 317.481 1340.14 317.481C1343.84 317.481 1346.75 315.403 1348.33 311.787H1357.57C1355.99 320.307 1349.08 326.084 1340.18 326.084Z" fill="white"/>
<path d="M1396.59 291.173V325.045H1389.44L1388.65 322.012C1385.74 324.547 1381.95 326.043 1377.67 326.043C1367.48 326.043 1359.86 318.354 1359.86 308.088C1359.86 297.864 1367.43 290.259 1377.67 290.259C1382.03 290.259 1385.86 291.796 1388.81 294.415L1389.81 291.173H1396.59ZM1387.65 308.13C1387.65 302.81 1383.74 298.862 1378.42 298.862C1373.09 298.862 1369.18 302.852 1369.18 308.13C1369.18 313.45 1373.09 317.398 1378.42 317.398C1383.74 317.398 1387.65 313.45 1387.65 308.13Z" fill="white"/>
<path d="M1422.34 290.3C1432.53 290.3 1440.1 297.947 1440.1 308.213C1440.1 318.479 1432.53 326.167 1422.34 326.167C1418.85 326.167 1415.64 325.128 1413.02 323.3V337.347H1403.87V291.256H1409.94L1411.52 294.331C1414.35 291.755 1418.1 290.3 1422.34 290.3ZM1430.83 308.171C1430.83 302.851 1426.92 298.903 1421.59 298.903C1416.27 298.903 1412.36 302.893 1412.36 308.171C1412.36 313.491 1416.27 317.44 1421.59 317.44C1426.92 317.44 1430.83 313.491 1430.83 308.171Z" fill="white"/>
<path d="M1478 308.047C1478 308.961 1477.92 309.834 1477.83 310.749H1452.17C1452.96 315.362 1455.99 317.897 1460.45 317.897C1463.65 317.897 1466.23 316.401 1467.64 313.949H1477.29C1474.84 321.347 1468.35 326.043 1460.49 326.043C1450.46 326.043 1442.89 318.313 1442.89 308.13C1442.89 297.948 1450.42 290.217 1460.49 290.217C1470.85 290.3 1478 298.28 1478 308.047ZM1452.42 304.473H1468.85C1467.56 300.317 1464.56 298.072 1460.45 298.072C1456.37 298.114 1453.46 300.483 1452.42 304.473Z" fill="white"/>
<path d="M1070.85 263.637H1049.64C1047.76 263.679 1046.06 264.76 1045.23 266.464C1045.23 266.464 1043.23 270.952 1041.36 275.233C1037.82 260.811 1032.29 238.576 1032.29 238.576C1031.79 236.498 1029.96 235.001 1027.8 234.918C1025.63 234.835 1023.72 236.207 1023.1 238.243C1023.1 238.243 1016.61 258.484 1014.94 263.72H999.179C1002.17 266.089 1004.13 269.456 1004.71 273.238H1018.4C1020.48 273.238 1022.27 271.867 1022.89 269.913C1022.89 269.913 1024.97 263.43 1026.97 257.071C1030.63 271.908 1035.41 290.985 1035.41 290.985C1035.87 292.938 1037.57 294.393 1039.61 294.518C1041.65 294.684 1043.56 293.562 1044.39 291.691C1044.39 291.691 1050.76 277.394 1052.63 273.113H1065.36C1065.98 269.414 1067.94 266.048 1070.85 263.637Z" fill="#2BA5DC"/>
<path d="M1092.69 278.558C1092.69 278.433 1092.82 278.35 1092.82 278.267V278.142C1092.82 278.018 1092.86 277.935 1092.94 277.851V277.727C1092.94 277.602 1092.98 277.519 1093.06 277.436V277.02V275.649C1093.06 268.916 1087.57 263.43 1080.83 263.43C1074.1 263.43 1068.61 268.916 1068.61 275.649C1068.61 282.382 1074.1 287.868 1080.83 287.868H1083.12C1083.25 287.868 1083.33 287.826 1083.41 287.743C1086.45 294.476 1087.99 301.749 1088.03 309.147C1088.07 316.005 1086.7 322.779 1084.08 329.097C1071.48 315.922 1053.88 308.648 1035.62 309.022C1017.32 308.732 999.762 315.88 986.95 328.889C984.329 322.572 982.998 315.797 982.998 308.939C982.957 301.583 984.496 294.351 987.491 287.66C987.699 287.66 988.031 287.785 988.239 287.785H989.612C996.351 287.785 1001.84 282.298 1001.84 275.566C1001.84 268.833 996.351 263.346 989.612 263.346C982.873 263.346 977.341 268.791 977.341 275.524V278.974C977.341 279.098 977.466 279.264 977.466 279.389C973.306 288.657 971.101 298.674 970.977 308.815C970.977 344.516 999.928 373.443 1035.62 373.443C1071.35 373.443 1100.3 344.516 1100.3 308.856C1100.22 298.258 1097.64 287.868 1092.69 278.558ZM1009.54 343.602C1004.75 343.602 1000.89 339.736 1000.89 334.957C1000.89 330.177 1004.75 326.312 1009.54 326.312C1014.32 326.312 1018.19 330.177 1018.19 334.957C1018.19 339.736 1014.32 343.602 1009.58 343.602C1009.54 343.602 1009.54 343.602 1009.54 343.602ZM1061.66 343.602C1056.87 343.602 1053.01 339.736 1053.01 334.957C1053.01 330.177 1056.87 326.312 1061.66 326.312C1066.44 326.312 1070.31 330.177 1070.31 334.957C1070.31 339.736 1066.44 343.602 1061.7 343.602C1061.66 343.602 1061.66 343.602 1061.66 343.602Z" fill="white"/>
<path d="M357.779 218.862C324.867 218.862 302.177 200.464 302.177 169.801H333.453C333.453 183.497 344.9 190.243 357.575 190.243C369.226 190.243 380.674 184.111 380.674 173.481C380.674 162.238 367.591 159.171 352.055 155.696C330.387 150.381 304.221 144.044 304.221 113.177C304.221 85.7847 324.459 70.2488 356.144 70.2488C389.055 70.2488 407.657 87.8289 407.657 116.448H377.199C377.199 103.978 366.978 98.2543 355.326 98.2543C345.309 98.2543 335.293 102.547 335.293 111.95C335.293 121.967 347.558 125.033 362.889 128.713C384.558 134.232 411.95 140.978 411.95 173.072C411.95 203.939 387.42 218.862 357.779 218.862ZM487.443 189.425H500.935V216H479.675C455.349 216 440.427 201.077 440.427 176.751V129.735H420.598V123.193L464.139 76.9946H469.863V105.613H500.322V129.735H470.272V172.663C470.272 183.293 476.405 189.425 487.443 189.425ZM571.6 219.271C540.528 219.271 519.678 199.238 519.678 169.392V105.613H549.523V166.122C549.523 181.862 557.904 191.061 571.6 191.061C585.501 191.061 593.678 181.657 593.678 166.122V105.613H623.523V169.392C623.523 199.238 602.876 219.271 571.6 219.271ZM731.623 65.956H761.468V216.204H739.39L735.915 207.006C726.716 214.773 714.86 219.475 701.368 219.475C667.844 219.475 643.313 194.332 643.313 161.011C643.313 127.486 667.844 102.547 701.368 102.547C712.816 102.547 723.037 105.818 731.623 111.746V65.956ZM703.821 191.265C721.197 191.265 733.871 178.182 733.871 161.011C733.871 143.635 721.197 130.757 703.821 130.757C686.446 130.757 673.772 143.635 673.772 161.011C673.772 178.182 686.446 191.265 703.821 191.265ZM866.461 105.613H898.146L850.108 214.569C836.82 244.619 825.168 255.862 800.434 255.862H788.168V229.083H798.389C812.903 229.083 816.583 225.199 823.329 208.436L823.738 207.619L776.925 105.613H809.428L838.865 173.685L866.461 105.613ZM1006.17 72.9062V101.729H966.311V216H935.443V101.729H895.581V72.9062H1006.17ZM1023.38 90.8952V63.2985H1053.02V90.8952H1023.38ZM1023.38 216V105.613H1053.22V216H1023.38ZM1207.38 103.16C1230.28 103.16 1246.22 120.945 1246.22 146.906V216H1216.38V151.812C1216.38 137.094 1210.65 129.326 1199.82 129.326C1186.53 129.326 1178.56 139.138 1178.56 156.309V216H1149.53V151.812C1149.53 137.094 1143.81 129.326 1133.18 129.326C1119.69 129.326 1111.72 139.138 1111.72 156.309V216H1081.87V105.613H1102.72L1108.24 119.31C1116.01 109.497 1128.07 103.16 1141.15 103.16C1155.26 103.16 1166.7 109.702 1173.25 120.74C1180.81 110.111 1193.28 103.16 1207.38 103.16ZM1380.83 160.602C1380.83 163.464 1380.62 166.326 1380.22 169.188H1296.61C1299.27 184.315 1309.08 192.696 1323.59 192.696C1334.02 192.696 1342.6 187.79 1347.1 179.818H1378.38C1370.4 203.939 1349.35 219.271 1323.59 219.271C1291.09 219.271 1266.35 193.923 1266.35 160.807C1266.35 127.691 1290.88 102.547 1323.59 102.547C1357.53 102.547 1380.83 128.713 1380.83 160.602ZM1323.59 128.1C1310.3 128.1 1300.9 135.868 1297.43 148.95H1350.98C1346.69 135.459 1337.08 128.1 1323.59 128.1ZM1458.49 105H1468.31V133.21H1455.22C1438.46 133.21 1431.92 140.774 1431.92 158.763V216H1402.07V105.613H1421.09L1426.4 119.31C1434.37 109.497 1444.18 105 1458.49 105Z" fill="white"/>
<path d="M894.306 293.755C903.838 293.755 910.813 300.846 910.813 310.379C910.813 319.853 903.838 326.944 894.306 326.944C890.47 326.944 887.098 325.665 884.483 323.398L883.437 326.072H877.217V283.351H885.703V296.371C888.087 294.685 891.051 293.755 894.306 293.755ZM893.608 318.923C898.549 318.923 902.152 315.203 902.152 310.321C902.152 305.438 898.549 301.718 893.608 301.718C888.668 301.718 885.064 305.438 885.064 310.321C885.064 315.203 888.668 318.923 893.608 318.923ZM937.268 294.627H946.278L932.618 325.607C928.84 334.151 925.527 337.348 918.494 337.348H915.007V329.734H917.913C922.04 329.734 923.086 328.63 925.004 323.863L925.12 323.631L911.81 294.627H921.052L929.422 313.982L937.268 294.627Z" fill="white"/>
<path d="M196.014 81.0872L212.324 64.7773L196.275 48.7227L178.828 66.1705C162.889 54.8749 144.289 47.9132 124.85 45.9675V22.7H147.55V0H79.45V22.7H102.15V45.9675C82.7113 47.9132 64.1114 54.8749 48.1723 66.1705L30.7245 48.7227L14.6756 64.7773L30.9855 81.0872C15.7612 97.2065 5.59153 117.432 1.73244 139.266C-2.12666 161.1 0.493831 183.586 9.2703 203.947C18.0468 224.309 32.5948 241.653 51.1179 253.84C69.6409 266.026 91.3277 272.52 113.5 272.52C135.672 272.52 157.359 266.026 175.882 253.84C194.405 241.653 208.953 224.309 217.73 203.947C226.506 183.586 229.127 161.1 225.268 139.266C221.408 117.432 211.239 97.2065 196.014 81.0872ZM113.5 249.7C95.5415 249.7 77.9862 244.375 63.0542 234.397C48.1223 224.42 36.4842 210.239 29.6118 193.648C22.7394 177.056 20.9412 158.799 24.4447 141.186C27.9483 123.572 36.5961 107.393 49.2947 94.6947C61.9933 81.9961 78.1723 73.3482 95.7858 69.8447C113.399 66.3411 131.656 68.1393 148.248 75.0117C164.839 81.8841 179.02 93.5222 188.997 108.454C198.975 123.386 204.3 140.941 204.3 158.9C204.273 182.973 194.698 206.053 177.675 223.075C160.653 240.098 137.573 249.673 113.5 249.7Z" fill="#2BA5DC"/>
<path d="M140.061 106.179H86.9395C82.6233 106.277 78.522 108.089 75.5346 111.218C72.5473 114.346 70.9177 118.536 71.0032 122.868V201.142C70.9923 203.272 71.5927 205.36 72.7325 207.156C73.8723 208.953 75.5034 210.382 77.4308 211.273C79.2835 212.059 81.3204 212.3 83.3045 211.97C85.2887 211.64 87.1387 210.751 88.6394 209.407L113.5 186.692L138.361 209.407C140.252 211.174 142.736 212.163 145.319 212.179C146.782 212.167 148.228 211.858 149.569 211.273C151.497 210.382 153.128 208.953 154.268 207.156C155.407 205.36 156.008 203.272 155.997 201.142V122.868C156.082 118.536 154.453 114.346 151.465 111.218C148.478 108.089 144.377 106.277 140.061 106.179Z" fill="#2BA5DC"/>
</svg>
